<?xml version="1.0" encoding="utf-8"?>
<!-- Generator: Adobe Illustrator 21.1.0, SVG Export Plug-In . SVG Version: 6.00 Build 0)  -->
<svg version="1.1" id="Layer_1" xmlns="http://www.w3.org/2000/svg" xmlns:xlink="http://www.w3.org/1999/xlink" x="0px" y="0px"
	 viewBox="0 0 205.6 209.5" style="enable-background:new 0 0 205.6 209.5;" xml:space="preserve">
<style type="text/css">
	.st0{fill:#EC0044;}
</style>
<title>Revive.Digital</title>
<path class="st0" d="M186.6,153.3c-1,0-1.8,0.8-1.8,1.8s0.8,1.8,1.8,1.8l0,0H202v4c0,1.4-2.9,2.2-3.8,2.3H7.4
	c-1.6,0.1-3-0.8-3.6-2.3v-4.1h82c0.2,0.5,0.3,1.1,0.4,1.6l0.1,1.7h32.5v-1.8c0-0.5,0.1-1,0.2-1.5h55.3c2.6,0.1,5.1-0.9,6.9-2.7
	c2.9-3.1,2.8-7.8,2.8-8.4v-97c0.1-3.3-2.5-6.1-5.8-6.2c-0.1,0-0.2,0-0.3,0H26.4c-4,0-5.6,3.7-5.8,5.6v0.1v94.1
	c-0.1,3.8,2.9,7,6.7,7.2c0.1,0,0.3,0,0.4,0h139.6c4.7,0,8.5-3.8,8.5-8.5l0,0l-0.1-82c0-4.7-2-8.5-6.7-8.5h-1.8l-130.3,0
	c-4.7,0-8.5,3.8-8.5,8.5v80.5c0,1,0.8,1.8,1.8,1.8s1.8-0.8,1.8-1.8V59c0-2.7,2.2-4.8,4.8-4.8L169,54h-1.8c2.7,0,4.8,2.2,4.8,4.8
	l0.1,82c0,2.7-2.2,4.8-4.8,4.9l0,0H27.6c-1.8,0.1-3.4-1.3-3.5-3.1c0-0.1,0-0.3,0-0.4V48.5c0.1-0.5,0.5-2.3,2.2-2.3h151.4
	c1.3-0.1,2.4,0.9,2.5,2.1c0,0.1,0,0.2,0,0.4v97.2v-1.7c0,0,0.2,5.5-1.8,7.6c-1.1,1.1-2.7,1.7-4.2,1.6h-55.9c-1.5,0-2.6,1.2-3,3.3
	H89.5c-0.5-1.8-1.5-3.4-3.5-3.4H0v8.4l0.1,0.2c1,3.1,3.9,5.2,7.2,5.2h191.1h0.1c2.6-0.3,7.1-2,7.1-6v-7.7L186.6,153.3z"/>
</svg>
