<svg id="Layer_1" data-name="Layer 1" xmlns="http://www.w3.org/2000/svg" viewBox="0 0 918.724 168.812"><defs><style>.cls-1{fill:#fff;}</style></defs><title>logo-white</title><path class="cls-1" d="M0,131.09V43.934H22.276L24.512,54.15l2.029-2.6C31.5,45.2,37.454,41.983,44.227,41.983c4.213,0,9.308,1.546,11.685,2.353L49.469,65.919A18.339,18.339,0,0,0,41.138,64.1c-5.661,0-12.177,2.911-14.8,7.955V131.09Z"/><path class="cls-1" d="M94.783,133.041c-26.136,0-44.39-18.188-44.39-44.227,0-26.7,19.154-46.83,44.553-46.83,24.779,0,42.764,16.892,42.764,40.164a66,66,0,0,1-1.08,11.87H77l.434,1.893c2.338,10.217,9.494,16.317,19.141,16.317,10.95,0,15.734-4.623,20.731-11.308l16.867,11.61C123.155,127.265,111.99,133.041,94.783,133.041Zm.976-70.895c-8.533,0-14.29,4.236-17.112,12.59l-.69,2.045H111.12l-.235-1.754C109.8,66.961,104.149,62.146,95.759,62.146Z"/><polygon class="cls-1" points="165.246 131.09 132.563 43.934 161.67 43.934 177.277 95.194 193.377 43.934 222.807 43.934 186.384 131.09 165.246 131.09"/><polygon class="cls-1" points="291.234 131.09 258.551 43.934 287.657 43.934 303.265 95.194 319.365 43.934 348.795 43.934 312.372 131.09 291.234 131.09"/><path class="cls-1" d="M515.431,133.041c-22.157,0-39.513-20.142-39.513-45.853,0-25.349,17.428-45.2,39.675-45.2,3.175,0,14.157.54,22.15,7.492l2.565,2.231V9.138H566.65V131.09H544.536L542,120.957l-1.952,2.3C532.364,132.336,519.263,133.041,515.431,133.041Zm6.5-68.944c-12.7,0-19.35,11.943-19.35,23.741,0,11.193,6.668,23.089,19.025,23.089l.622-.006c10.3-.194,18.076-10.3,18.076-23.514S532.5,64.163,522.154,64.1Z"/><path class="cls-1" d="M656.688,168.812a76.2,76.2,0,0,1-39.663-11.467L627,136.478c10.295,7.509,21.55,10.221,28.872,10.221,11.78,0,18.536-6.816,18.536-18.7v-6.609l-2.568,2.244c-7.912,6.918-19.076,7.454-22.31,7.454-22.157,0-39.513-19.714-39.513-44.879,0-25.214,17.056-44.227,39.675-44.227,3.8,0,16.8.714,24.449,9.891l1.962,2.352,2.532-10.292h22.114v83.09c0,9.012-1.969,16.836-5.854,23.252C687.8,162.057,673.873,168.812,656.688,168.812ZM656.037,64.1c-13.294,0-19.35,11.8-19.35,22.766,0,10.989,6.535,22.114,19.025,22.114l.623-.006c10.809-.2,18.076-8.868,18.076-21.563,0-13.223-7.805-23.243-18.155-23.31Z"/><rect class="cls-1" x="227.509" y="43.934" width="26.341" height="87.156"/><path class="cls-1" d="M387.064,133.041c-26.136,0-44.39-18.188-44.39-44.227,0-26.7,19.153-46.83,44.553-46.83,24.78,0,42.765,16.892,42.765,40.164a59.865,59.865,0,0,1-1.047,11.87H369.278l.434,1.893c2.338,10.217,9.494,16.317,19.141,16.317,10.95,0,15.734-4.623,20.731-11.308l16.867,11.61C415.436,127.265,404.271,133.041,387.064,133.041Zm.976-70.895c-8.533,0-14.29,4.236-17.112,12.59l-.69,2.045H403.4l-.235-1.754C402.084,66.961,396.431,62.146,388.04,62.146Z"/><rect class="cls-1" x="576.3" y="43.934" width="26.341" height="87.156"/><rect class="cls-1" x="709.752" y="43.934" width="26.341" height="87.156"/><path class="cls-1" d="M781.53,133.041c-13.68,0-24.023-7.789-26.993-20.325a61.952,61.952,0,0,1-1.138-13.5V65.4H743.48V43.934H753.4l4.878-18.7h21.463v18.7H801.2V65.4H779.741V97.269a40.95,40.95,0,0,0,.488,7.8c.736,4.046,2.592,5.854,6.017,5.854a17.943,17.943,0,0,0,7.95-1.71l8.552,19.125C796.065,131.791,787.525,133.041,781.53,133.041Z"/><path class="cls-1" d="M834.353,133.041c-15.292,0-31.545-9.859-31.545-28.13,0-20.5,19.487-27.8,37.724-27.8a66.515,66.515,0,0,1,13.077,1.376l1.93.395-.072-1.968c-.377-10.293-5.432-15.087-15.912-15.087-9.362,0-17.43,3.347-24.338,6.728l-7.062-17.918a87.543,87.543,0,0,1,37.254-8.649c23.147,0,36.423,13.454,36.423,36.911v52.2H859.719l-2.376-6.654-1.729,1.686C849.758,131.84,840.82,133.041,834.353,133.041Zm10.732-40.812c-6.219,0-10.769,1.419-13.524,4.215a11.362,11.362,0,0,0-3.062,8.49c.1,6.851,6.155,10.547,11.8,10.547,5.457-.033,9.484-1.378,12.052-4a11.876,11.876,0,0,0,3.144-8.711,10.322,10.322,0,0,0-10.315-10.546Z"/><rect class="cls-1" x="892.382" y="9.138" width="26.341" height="121.952"/><path class="cls-1" d="M240.568,0a16.86,16.86,0,1,0,16.86,16.86A16.879,16.879,0,0,0,240.568,0Z"/><path class="cls-1" d="M589.016,0a16.86,16.86,0,1,0,16.86,16.86A16.879,16.879,0,0,0,589.016,0Z"/><path class="cls-1" d="M452.734,99.114a16.86,16.86,0,1,0,16.86,16.86A16.879,16.879,0,0,0,452.734,99.114Z"/><path class="cls-1" d="M723.749,0a16.86,16.86,0,1,0,16.86,16.86A16.879,16.879,0,0,0,723.749,0Z"/></svg>